
  <svg xmlns="http://www.w3.org/2000/svg" width="15" height="15" viewBox="0 0 15 15" aria-hidden="true">
    <g fill="none">
      <path d="M4.4064,11.26584 C8.19456,11.26584 11.26512,8.1948 11.26512,4.40664 C11.26512,2.72808 10.66032,1.19256 9.65952,0.00024 C12.75168,0.99288 14.99088,3.8892 14.99088,7.31112 C14.99088,11.55288 11.55264,14.99112 7.31088,14.99112 C3.88896,14.99112 0.99264,12.75192 0,9.65976 C1.19232,10.66104 2.72832,11.26584 4.4064,11.26584 Z" fill="#FFD93B"/>
      <path d="M12.0576,1.28328 C13.0848,2.5884 13.70208,4.23144 13.70208,6.02184 C13.70208,10.2636 10.26384,13.70184 6.02208,13.70184 C4.23168,13.70184 2.58864,13.08456 1.28352,12.05736 C2.68896,13.84152 4.86384,14.99112 7.31136,14.99112 C11.55312,14.99112 14.99136,11.55288 14.99136,7.31112 C14.99136,4.8636 13.84176,2.6892 12.0576,1.28328 Z" fill="#F4C534"/>
    </g>
  </svg>

